<?xml version="1.0" standalone="no"?>
<!DOCTYPE svg PUBLIC "-//W3C//DTD SVG 20010904//EN"
 "http://www.w3.org/TR/2001/REC-SVG-20010904/DTD/svg10.dtd">
<svg version="1.0" xmlns="http://www.w3.org/2000/svg"
 width="400.000000pt" height="400.000000pt" viewBox="0 0 400.000000 400.000000"
 preserveAspectRatio="xMidYMid meet">
<metadata>
Created by potrace 1.11, written by Peter Selinger 2001-2013
</metadata>
<g transform="translate(0.000000,400.000000) scale(0.100000,-0.100000)"
fill="#000000" stroke="none">
<path d="M1760 3165 c0 -24 -2 -25 -75 -25 -73 0 -75 -1 -75 -25 0 -24 -2 -25
-69 -25 -65 0 -70 -2 -73 -22 -2 -15 -11 -24 -25 -26 -14 -2 -23 -11 -25 -25
-2 -14 -11 -23 -25 -25 -15 -2 -23 -10 -23 -22 0 -12 -8 -20 -22 -22 -15 -2
-24 -11 -26 -25 -2 -14 -11 -23 -25 -25 -14 -2 -23 -11 -25 -25 -2 -14 -11
-23 -25 -25 -14 -2 -23 -11 -25 -25 -2 -15 -10 -23 -22 -23 -12 0 -20 -8 -22
-22 -2 -15 -11 -24 -25 -26 -19 -3 -22 -11 -25 -50 -3 -40 -6 -47 -25 -50 -20
-3 -23 -9 -23 -48 0 -40 -2 -44 -25 -44 -23 0 -25 -3 -25 -50 0 -47 -2 -50
-25 -50 -23 0 -25 -3 -25 -50 0 -47 -2 -50 -25 -50 -25 0 -25 0 -25 -95 0 -95
0 -95 25 -95 20 0 25 -5 25 -25 0 -20 5 -25 25 -25 l25 0 0 -248 c0 -137 3
-310 7 -385 5 -124 8 -137 25 -137 16 0 18 10 18 114 0 111 1 115 23 118 19 3
22 10 25 51 3 42 5 47 28 47 19 0 24 5 24 25 0 20 5 25 25 25 l25 0 0 195 0
195 25 0 c20 0 25 5 25 25 0 23 4 25 45 25 38 0 45 3 45 20 0 17 7 20 50 20
47 0 50 2 50 25 0 23 4 25 45 25 38 0 45 -3 45 -20 0 -15 -7 -20 -25 -20 -20
0 -25 -5 -25 -25 0 -20 -5 -25 -25 -25 -18 0 -25 -5 -25 -19 0 -13 -8 -21 -22
-23 -20 -3 -23 -9 -23 -53 0 -47 2 -50 28 -53 23 -3 27 0 27 22 0 21 5 26 25
26 20 0 25 5 25 25 l0 25 121 0 c119 0 120 0 117 -22 -3 -21 -9 -23 -75 -26
-70 -3 -73 -4 -73 -27 0 -18 -5 -25 -19 -25 -13 0 -21 -8 -23 -22 -2 -15 -11
-24 -25 -26 -23 -3 -23 -6 -23 -142 0 -136 0 -139 23 -142 14 -2 23 -11 25
-25 2 -14 10 -23 21 -23 21 0 31 -41 31 -132 l0 -58 -119 0 c-116 0 -120 1
-123 23 -3 19 -10 22 -50 25 -40 3 -48 6 -48 23 0 14 -7 19 -30 19 l-30 0 0
-75 c0 -73 1 -75 25 -75 20 0 25 -5 25 -25 0 -20 5 -25 25 -25 20 0 25 -5 25
-25 0 -20 5 -25 25 -25 18 0 25 -5 25 -20 0 -17 7 -20 45 -20 41 0 45 -2 45
-25 0 -20 5 -25 25 -25 20 0 25 -5 25 -25 0 -26 0 -26 78 -23 71 3 77 5 80 26
5 32 42 30 42 -3 l0 -25 100 0 100 0 0 25 c0 25 1 25 90 25 89 0 90 0 90 -25
l0 -25 100 0 100 0 0 25 c0 33 37 35 42 3 3 -21 9 -23 81 -26 77 -3 77 -3 77
23 0 20 5 25 25 25 20 0 25 5 25 25 0 23 4 25 45 25 38 0 45 3 45 20 0 15 7
20 25 20 20 0 25 5 25 25 0 20 5 25 25 25 20 0 25 5 25 25 0 20 5 25 25 25 24
0 25 2 25 75 l0 75 -30 0 c-23 0 -30 -5 -30 -19 0 -17 -8 -20 -47 -23 -41 -3
-48 -6 -51 -25 -3 -22 -7 -23 -123 -23 l-119 0 0 58 c0 91 10 132 31 132 11 0
19 9 21 23 2 14 11 23 26 25 22 3 22 6 22 142 0 136 0 139 -22 142 -15 2 -24
11 -26 26 -2 14 -10 22 -23 22 -14 0 -19 7 -19 25 0 23 -3 24 -72 27 -67 3
-73 5 -76 26 -3 22 -2 22 117 22 l121 0 0 -25 c0 -20 5 -25 25 -25 20 0 25 -5
25 -26 0 -22 4 -25 28 -22 25 3 27 6 27 53 0 44 -3 50 -22 53 -15 2 -23 10
-23 23 0 14 -7 19 -25 19 -20 0 -25 5 -25 25 0 20 -5 25 -25 25 -18 0 -25 5
-25 20 0 17 7 20 45 20 41 0 45 -2 45 -25 0 -23 3 -25 50 -25 43 0 50 -3 50
-20 0 -17 7 -20 45 -20 41 0 45 -2 45 -25 0 -20 5 -25 25 -25 l25 0 0 -195 0
-195 25 0 c20 0 25 -5 25 -25 0 -20 5 -25 24 -25 23 0 25 -5 28 -47 3 -41 6
-48 26 -51 21 -3 22 -7 22 -118 0 -104 2 -114 18 -114 17 0 20 13 25 137 4 75
7 248 7 385 l0 248 25 0 c20 0 25 5 25 25 0 20 5 25 25 25 25 0 25 0 25 95 0
95 0 95 -25 95 -23 0 -25 3 -25 50 0 47 -2 50 -25 50 -23 0 -25 3 -25 50 0 47
-2 50 -25 50 -23 0 -25 4 -25 44 0 39 -3 45 -22 48 -20 3 -23 10 -26 50 -3 39
-6 47 -25 50 -14 2 -23 11 -25 26 -2 14 -10 22 -22 22 -12 0 -20 8 -22 23 -2
14 -11 23 -25 25 -14 2 -23 11 -25 25 -2 14 -11 23 -25 25 -14 2 -23 11 -25
25 -2 14 -11 23 -25 25 -15 2 -23 10 -23 22 0 12 -8 20 -22 22 -15 2 -24 11
-26 25 -2 14 -11 23 -25 25 -14 2 -23 11 -25 26 -3 20 -8 22 -73 22 -67 0 -69
1 -69 25 0 24 -2 25 -75 25 -73 0 -75 1 -75 25 l0 25 -240 0 -240 0 0 -25z
m430 -200 c0 -23 3 -25 50 -25 47 0 50 -2 50 -25 0 -20 5 -25 25 -25 l25 0 0
-140 0 -140 -25 0 c-23 0 -25 4 -25 44 0 39 -3 45 -22 48 -20 3 -23 10 -26 51
-3 38 -7 47 -22 47 -15 0 -19 9 -22 48 -3 40 -6 47 -25 50 -14 2 -23 11 -25
25 -2 14 -11 23 -25 25 -19 3 -23 -1 -23 -22 0 -21 -5 -26 -25 -26 -20 0 -25
-5 -25 -25 0 -23 -3 -25 -50 -25 -47 0 -50 2 -50 25 0 20 -5 25 -25 25 -20 0
-25 5 -25 26 0 21 -4 25 -22 22 -15 -2 -24 -11 -26 -25 -2 -14 -11 -23 -25
-25 -19 -3 -22 -10 -25 -50 -3 -39 -7 -48 -22 -48 -15 0 -19 -9 -22 -47 -3
-41 -6 -48 -25 -51 -20 -3 -23 -9 -23 -48 0 -40 -2 -44 -25 -44 l-25 0 0 140
0 140 25 0 c20 0 25 5 25 25 0 23 3 25 50 25 47 0 50 2 50 25 l0 25 190 0 190
0 0 -25z m-290 -190 c0 -20 5 -25 25 -25 20 0 25 -5 25 -25 0 -23 3 -25 50
-25 47 0 50 2 50 25 0 20 5 25 25 25 20 0 25 5 25 25 0 18 5 25 20 25 17 0 20
-7 20 -50 0 -46 2 -50 25 -50 23 0 24 -3 27 -72 3 -67 5 -73 26 -76 14 -2 22
-10 22 -23 0 -18 -10 -19 -240 -19 -230 0 -240 1 -240 19 0 13 8 21 23 23 20
3 22 9 25 76 3 69 4 72 27 72 23 0 25 4 25 50 0 43 3 50 20 50 15 0 20 -7 20
-25z m-140 -195 c0 -15 -7 -20 -25 -20 -18 0 -25 5 -25 20 0 15 7 20 25 20 18
0 25 -5 25 -20z m530 0 c0 -15 -7 -20 -25 -20 -18 0 -25 5 -25 20 0 15 7 20
25 20 18 0 25 -5 25 -20z m-100 -295 c0 -23 3 -25 50 -25 43 0 50 -3 50 -20 0
-17 -7 -20 -50 -20 -47 0 -50 -2 -50 -25 0 -20 -5 -25 -25 -25 -23 0 -25 -4
-25 -44 0 -39 -3 -45 -22 -48 -23 -3 -23 -5 -23 -148 l0 -145 -95 0 -95 0 0
145 c0 143 0 145 -22 148 -20 3 -23 9 -23 48 0 40 -2 44 -25 44 -20 0 -25 5
-25 25 0 23 -3 25 -50 25 -43 0 -50 3 -50 20 0 17 7 20 50 20 47 0 50 2 50 25
l0 25 190 0 190 0 0 -25z m8 -572 c2 -14 11 -23 25 -25 14 -2 23 -11 25 -25 2
-15 10 -23 23 -23 14 0 19 -7 19 -25 0 -20 5 -25 25 -25 25 0 25 -1 25 -89 0
-49 -3 -103 -6 -120 -6 -29 -9 -31 -50 -31 -40 0 -44 -2 -44 -25 0 -20 -5 -25
-25 -25 -20 0 -25 -5 -25 -25 l0 -25 -190 0 -190 0 0 25 c0 20 -5 25 -25 25
-20 0 -25 5 -25 25 0 23 -4 25 -44 25 -41 0 -44 2 -50 31 -3 17 -6 71 -6 120
0 88 0 89 25 89 20 0 25 5 25 25 0 18 5 25 19 25 13 0 21 8 23 23 2 14 11 23
26 25 13 2 22 10 22 21 0 10 3 21 7 25 4 3 93 5 197 4 188 -3 191 -3 194 -25z"/>
<path d="M890 2000 c0 -13 7 -20 20 -20 13 0 20 7 20 20 0 13 -7 20 -20 20
-13 0 -20 -7 -20 -20z"/>
<path d="M3070 2000 c0 -13 7 -20 20 -20 13 0 20 7 20 20 0 13 -7 20 -20 20
-13 0 -20 -7 -20 -20z"/>
<path d="M840 1880 c0 -83 1 -90 20 -90 19 0 20 7 20 90 0 83 -1 90 -20 90
-19 0 -20 -7 -20 -90z"/>
<path d="M940 1925 c0 -38 3 -45 20 -45 17 0 20 7 20 45 0 38 -3 45 -20 45
-17 0 -20 -7 -20 -45z"/>
<path d="M3020 1925 c0 -38 3 -45 20 -45 17 0 20 7 20 45 0 38 -3 45 -20 45
-17 0 -20 -7 -20 -45z"/>
<path d="M3120 1880 c0 -83 1 -90 20 -90 19 0 20 7 20 90 0 83 -1 90 -20 90
-19 0 -20 -7 -20 -90z"/>
<path d="M890 1610 c0 -13 7 -20 20 -20 13 0 20 7 20 20 0 13 -7 20 -20 20
-13 0 -20 -7 -20 -20z"/>
<path d="M3070 1610 c0 -13 7 -20 20 -20 13 0 20 7 20 20 0 13 -7 20 -20 20
-13 0 -20 -7 -20 -20z"/>
<path d="M940 1560 c0 -13 7 -20 20 -20 13 0 20 7 20 20 0 13 -7 20 -20 20
-13 0 -20 -7 -20 -20z"/>
<path d="M3020 1560 c0 -13 7 -20 20 -20 13 0 20 7 20 20 0 13 -7 20 -20 20
-13 0 -20 -7 -20 -20z"/>
<path d="M1090 1320 c0 -13 7 -20 20 -20 13 0 20 7 20 20 0 13 -7 20 -20 20
-13 0 -20 -7 -20 -20z"/>
<path d="M2870 1320 c0 -13 7 -20 20 -20 13 0 20 7 20 20 0 13 -7 20 -20 20
-13 0 -20 -7 -20 -20z"/>
</g>
</svg>
